<?xml version="1.0" encoding="UTF-8" standalone="no"?>
<svg
   xmlns:dc="http://purl.org/dc/elements/1.1/"
   xmlns:cc="http://creativecommons.org/ns#"
   xmlns:rdf="http://www.w3.org/1999/02/22-rdf-syntax-ns#"
   xmlns:svg="http://www.w3.org/2000/svg"
   xmlns="http://www.w3.org/2000/svg"
   xmlns:sodipodi="http://sodipodi.sourceforge.net/DTD/sodipodi-0.dtd"
   xmlns:inkscape="http://www.inkscape.org/namespaces/inkscape"
   width="300"
   height="200"
   version="1.1"
   id="svg12"
   sodipodi:docname="InitWare-logomark.svg"
   inkscape:export-filename="Z:\Projects\systemd-stable\brand.initware.io\assets\png\InitWare-logomark.png"
   inkscape:export-xdpi="192"
   inkscape:export-ydpi="192"
   inkscape:version="1.0.2 (e86c870879, 2021-01-15, custom)">
  <metadata
     id="metadata18">
    <rdf:RDF>
      <cc:Work
         rdf:about="">
        <dc:format>image/svg+xml</dc:format>
        <dc:type
           rdf:resource="http://purl.org/dc/dcmitype/StillImage" />
      </cc:Work>
    </rdf:RDF>
  </metadata>
  <defs
     id="defs16" />
  <sodipodi:namedview
     pagecolor="#ffffff"
     bordercolor="#666666"
     borderopacity="1"
     objecttolerance="10"
     gridtolerance="10"
     guidetolerance="10"
     inkscape:pageopacity="0"
     inkscape:pageshadow="2"
     inkscape:window-width="1920"
     inkscape:window-height="1017"
     id="namedview14"
     showgrid="false"
     inkscape:zoom="3.4733333"
     inkscape:cx="150"
     inkscape:cy="72.4023"
     inkscape:window-x="892"
     inkscape:window-y="159"
     inkscape:window-maximized="1"
     inkscape:current-layer="svg12" />
  <path
     fill="#fff"
     d="M0 0h300v200H0z"
     id="path2" />
  <g
     id="g972"
     transform="matrix(7.2690566,0,0,7.2690566,-16042.008,-24553.146)"
     style="stroke-width:0.499998">
    <circle
       style="opacity:1;vector-effect:none;fill:#1e8bc3;fill-opacity:1;stroke:#141314;stroke-width:0.899997;stroke-linecap:round;stroke-linejoin:round;stroke-miterlimit:4;stroke-dasharray:none;stroke-dashoffset:0;stroke-opacity:1"
       id="circle1562"
       cx="2227.4219"
       cy="3391.5195"
       r="4.4999833" />
    <g
       id="g83"
       transform="matrix(0.07642462,0,0,0.06905636,2055.7011,3156.8668)">
      <path
         d="m 2251.8305,3386.6467 h -9.7993 v -41.7842 h 9.7993 z m 34.2959,10.4454 c 0,23.0559 -17.5794,41.7828 -39.1957,41.7828 -21.6171,0 -39.1966,-18.7269 -39.1966,-41.7828 0,-17.4634 10.1823,-32.2562 24.4974,-38.4788 v 11.549 c -8.7551,5.4262 -14.6984,15.3825 -14.6984,26.9298 0,17.2811 13.187,31.3385 29.3972,31.3385 16.2115,0 29.3966,-14.0574 29.3966,-31.3385 0,-11.5274 -5.9526,-21.5036 -14.6976,-26.9298 v -11.549 c 14.316,6.2229 24.4971,21.0154 24.4971,38.4788 z"
         id="path4184"
         inkscape:connector-curvature="0"
         sodipodi:nodetypes="cccccsssccsssccs"
         style="fill:#ffffff;fill-opacity:0.995984;stroke:#ffffff;stroke-width:0.117805;stroke-opacity:1" />
    </g>
  </g>
  <rect
     id="rect144"
     width="99.105545"
     height="97.600563"
     x="100.44723"
     y="51.199718"
     style="fill:none;stroke:#141314;stroke-width:10.631;stroke-miterlimit:4;stroke-dasharray:none;stroke-opacity:1" />
</svg>
