<?xml version="1.0" encoding="UTF-8" standalone="no"?>
<!-- Created with Inkscape (http://www.inkscape.org/) -->

<svg
   width="42mm"
   height="6.25mm"
   viewBox="0 0 42 6.25"
   version="1.1"
   id="svg5"
   inkscape:version="1.1 (c68e22c387, 2021-05-23)"
   sodipodi:docname="b-logo.svg"
   xmlns:inkscape="http://www.inkscape.org/namespaces/inkscape"
   xmlns:sodipodi="http://sodipodi.sourceforge.net/DTD/sodipodi-0.dtd"
   xmlns="http://www.w3.org/2000/svg"
   xmlns:svg="http://www.w3.org/2000/svg">
  <sodipodi:namedview
     id="namedview7"
     pagecolor="#ffffff"
     bordercolor="#666666"
     borderopacity="1.0"
     inkscape:pageshadow="2"
     inkscape:pageopacity="0.0"
     inkscape:pagecheckerboard="0"
     inkscape:document-units="mm"
     showgrid="false"
     inkscape:zoom="5.9295174"
     inkscape:cx="56.749981"
     inkscape:cy="30.440926"
     inkscape:window-width="1920"
     inkscape:window-height="1017"
     inkscape:window-x="892"
     inkscape:window-y="166"
     inkscape:window-maximized="1"
     inkscape:current-layer="text1310"
     width="46mm"
     fit-margin-top="0"
     fit-margin-left="0"
     fit-margin-bottom="0"
     fit-margin-right="0"
     showguides="false"
     lock-margins="false" />
  <defs
     id="defs2" />
  <g
     inkscape:label="Layer 1"
     inkscape:groupmode="layer"
     id="layer1"
     transform="translate(-0.25000026,-1.0000002)">
    <g
       aria-label="initware"
       id="text1310"
       style="font-weight:900;font-size:10.5833px;line-height:1.25;font-family:Roboto;-inkscape-font-specification:'Roboto Heavy';stroke-width:0.264583">
      <g
         id="g1285"
         transform="matrix(0.98713016,0,0,1,-31.655034,-97.671866)">
        <path
           d="M 40.974733,104.59255 H 39.719 v -5.59137 h 1.255733 z"
           style="font-weight:500;-inkscape-font-specification:'Roboto Medium';fill:#1e8bc3;fill-opacity:1"
           id="path6374"
           sodipodi:nodetypes="ccccc" />
        <path
           d="m 43.106871,99.00118 0.03617,0.645953 q 0.620115,-0.749306 1.627803,-0.749306 1.746657,0 1.777663,1.999873 v 3.69485 h -1.255733 v -3.6225 q 0,-0.53227 -0.232543,-0.78548 -0.227376,-0.258385 -0.749306,-0.258385 -0.759641,0 -1.131711,0.687295 v 3.97907 h -1.255733 v -5.59137 z"
           style="font-weight:500;-inkscape-font-specification:'Roboto Medium';fill:#1e8bc3;fill-opacity:1"
           id="path6376" />
        <path
           d="m 48.763708,104.59255 h -1.255733 v -5.59137 h 1.255733 z"
           style="font-weight:500;-inkscape-font-specification:'Roboto Medium';fill:#1e8bc3;fill-opacity:1"
           id="path6378"
           sodipodi:nodetypes="ccccc" />
        <path
           d="m 51.704088,99.00118 v 0 h 0.987017 v 0.930173 h -0.987017 v 3.121247 c 0,0.21359 0.04134,0.36862 0.124023,0.46509 0.08613,0.093 0.237711,0.13952 0.454751,0.13952 0.144693,0 0.291109,-0.0172 0.439248,-0.0517 v 0.97151 c -0.285942,0.0792 -0.561549,0.11885 -0.82682,0.11885 -0.964623,0 -1.446935,-0.53226 -1.446935,-1.59679 V 99.931353 H 49.528517 V 99.00118 h 0.919838 v 0 z"
           style="font-weight:500;-inkscape-font-specification:'Roboto Medium';fill:#1e8bc3;fill-opacity:1"
           id="path6380"
           sodipodi:nodetypes="cccccscsccsscccccc" />
        <path
           d="m 58.561528,102.8614 0.888832,-3.86022 h 1.224728 l -1.52445,5.59137 h -1.033526 l -1.198889,-3.83954 -1.178219,3.83954 h -1.033525 l -1.529618,-5.59137 h 1.224728 l 0.904334,3.81888 1.147214,-3.81888 h 0.945675 z"
           style="font-weight:500;-inkscape-font-specification:'Roboto Medium';fill:#1e8bc3;fill-opacity:1"
           id="path6382" />
        <path
           d="m 64.556154,104.59255 q -0.08268,-0.16019 -0.144693,-0.52193 -0.599445,0.62528 -1.467606,0.62528 -0.842323,0 -1.374589,-0.48058 -0.532266,-0.48059 -0.532266,-1.18856 0,-0.894 0.661457,-1.36942 0.666624,-0.48059 1.901686,-0.48059 h 0.769977 v -0.3669 q 0,-0.43408 -0.242879,-0.69246 -0.242878,-0.263552 -0.73897,-0.263552 -0.428913,0 -0.702798,0.217042 -0.273884,0.21187 -0.273884,0.5426 h -1.255733 q 0,-0.45992 0.30489,-0.857826 0.30489,-0.403075 0.82682,-0.630451 0.527098,-0.227376 1.173051,-0.227376 0.98185,0 1.565791,0.496093 0.583942,0.490924 0.599445,1.38492 v 2.52181 q 0,0.75447 0.211873,1.20405 v 0.0879 z m -1.379756,-0.90433 q 0.372069,0 0.69763,-0.18087 0.330728,-0.18087 0.496092,-0.48576 v -1.05419 h -0.676959 q -0.69763,0 -1.049029,0.24288 -0.351398,0.24287 -0.351398,0.68729 0,0.36173 0.237711,0.57877 0.242878,0.21188 0.645953,0.21188 z"
           style="font-weight:500;-inkscape-font-specification:'Roboto Medium';fill:#1e8bc3;fill-opacity:1"
           id="path6384" />
        <path
           d="m 69.668044,100.14839 q -0.248046,-0.0413 -0.511595,-0.0413 -0.862994,0 -1.162716,0.66146 v 3.82404 H 66.738 v -5.59137 h 1.198889 l 0.03101,0.625283 q 0.454751,-0.728636 1.260901,-0.728636 0.268716,0 0.444416,0.07235 z"
           style="font-weight:500;-inkscape-font-specification:'Roboto Medium';fill:#1e8bc3;fill-opacity:1"
           id="path6386" />
        <path
           d="m 72.625831,104.6959 q -1.193722,0 -1.93786,-0.7493 Q 69.949,103.19213 69.949,101.94156 v -0.15503 q 0,-0.83715 0.320393,-1.49344 0.32556,-0.66146 0.909502,-1.028361 0.583942,-0.366902 1.302242,-0.366902 1.142046,0 1.762161,0.728636 0.625283,0.728637 0.625283,2.061887 v 0.50642 h -3.653512 q 0.05684,0.69247 0.459918,1.09554 0.408243,0.40308 1.023191,0.40308 0.862993,0 1.405594,-0.69763 l 0.676959,0.64595 q -0.335896,0.50126 -0.899167,0.78031 -0.558104,0.27388 -1.255733,0.27388 z M 72.47597,99.905515 q -0.516763,0 -0.837156,0.361735 -0.315225,0.36173 -0.403075,1.00769 h 2.392611 v -0.093 Q 73.58701,100.55149 73.292455,100.2311 72.9979,99.905535 72.47597,99.905535 Z"
           style="font-weight:500;-inkscape-font-specification:'Roboto Medium';fill:#1e8bc3;fill-opacity:1"
           id="path6388" />
        <g
           inkscape:label="Layer 1"
           id="layer1-9"
           transform="matrix(0.31250001,0,0,0.31250001,10.564342,-242.62274)"
           style="stroke:none">
          <g
             id="g972"
             transform="matrix(2.2222304,0,0,2.2222304,-4870.2233,-6434.5951)"
             style="stroke:none;stroke-width:0.499998">
            <circle
               style="opacity:1;vector-effect:none;fill:#1e8bc3;fill-opacity:1;stroke:none;stroke-width:0.899997;stroke-linecap:round;stroke-linejoin:round;stroke-miterlimit:4;stroke-dasharray:none;stroke-dashoffset:0;stroke-opacity:1"
               id="circle1562"
               cx="2227.4219"
               cy="3391.5195"
               r="4.4999833" />
            <g
               id="g83"
               transform="matrix(0.07642462,0,0,0.06905636,2055.7011,3156.8668)"
               style="stroke:none">
              <path
                 d="m 2251.8305,3386.6467 h -9.7993 v -41.7842 h 9.7993 z m 34.2959,10.4454 c 0,23.0559 -17.5794,41.7828 -39.1957,41.7828 -21.6171,0 -39.1966,-18.7269 -39.1966,-41.7828 0,-17.4634 10.1823,-32.2562 24.4974,-38.4788 v 11.549 c -8.7551,5.4262 -14.6984,15.3825 -14.6984,26.9298 0,17.2811 13.187,31.3385 29.3972,31.3385 16.2115,0 29.3966,-14.0574 29.3966,-31.3385 0,-11.5274 -5.9526,-21.5036 -14.6976,-26.9298 v -11.549 c 14.316,6.2229 24.4971,21.0154 24.4971,38.4788 z"
                 id="path4184"
                 inkscape:connector-curvature="0"
                 sodipodi:nodetypes="cccccsssccsssccs"
                 style="fill:#ffffff;fill-opacity:0.995984;stroke:none;stroke-width:0.117805;stroke-opacity:1" />
            </g>
          </g>
        </g>
      </g>
    </g>
  </g>
</svg>
